<svg width="172" height="47" viewBox="0 0 172 47" fill="none" xmlns="http://www.w3.org/2000/svg">
<rect width="172" height="47" fill="#E9DEDE"/>
<g id="Print Invoice Copy - A4 Size">
<rect width="594" height="842" transform="translate(-370 -60)" fill="white"/>
<g id="Frame 22">
<g id="Logo (1) 1">
<g id="Clip path group">
<mask id="mask0_47_2" style="mask-type:luminance" maskUnits="userSpaceOnUse" x="0" y="0" width="172" height="47">
<g id="clip0_635_64677">
<path id="Vector" d="M172 0H0V46.5609H172V0Z" fill="white"/>
</g>
</mask>
<g mask="url(#mask0_47_2)">
<g id="Group">
<path id="Vector_2" d="M69.8118 18.2035C70.6558 18.5679 71.2984 19.0906 71.7348 19.7812C72.176 20.4717 72.3966 21.3349 72.3918 22.3707C72.3918 23.2387 72.2287 24.0443 71.9074 24.7828C71.5861 25.5213 71.1114 26.1687 70.488 26.7153C69.8646 27.262 69.1069 27.6936 68.2102 27.9957C67.3134 28.3026 66.2968 28.4513 65.1507 28.4513L57.3149 28.4369L60.3361 8.43518L68.0183 8.44957C69.5625 8.44957 70.8093 8.81402 71.754 9.53813C72.6987 10.2622 73.1638 11.3748 73.1638 12.8757C73.1638 14.041 72.8665 15.0816 72.2815 16.0024C71.6964 16.9231 70.8716 17.6568 69.807 18.2035H69.8118ZM65.4911 25.1808C65.9131 25.1808 66.3064 25.0993 66.666 24.9266C67.0305 24.7588 67.3374 24.5238 67.6011 24.2313C67.8649 23.9388 68.0711 23.5983 68.2197 23.2147C68.3732 22.8358 68.4451 22.433 68.4499 22.011C68.4499 21.3541 68.2629 20.8361 67.8793 20.4525C67.5004 20.0689 66.9585 19.8771 66.2536 19.8771L62.7002 19.8675L61.9042 25.1712L65.4911 25.1808ZM69.2508 13.7869C69.2508 13.1539 69.0829 12.6504 68.7424 12.2763C68.402 11.9071 67.932 11.72 67.3278 11.7153H63.923L63.1606 16.7888H66.5941C66.9777 16.7984 67.3278 16.7121 67.6491 16.5442C67.9704 16.3764 68.2533 16.1558 68.4931 15.8777C68.7329 15.6043 68.9199 15.2878 69.0541 14.9234C69.1836 14.5637 69.2508 14.1849 69.2508 13.7821V13.7869Z" fill="#494949"/>
<path id="Vector_3" d="M87.1569 17.4314C87.1569 18.1795 86.9842 18.8557 86.6437 19.4647C86.3033 20.0737 85.8141 20.6012 85.1811 21.0424C84.5481 21.4836 83.7857 21.8288 82.8937 22.0734C82.0018 22.318 80.9995 22.4426 79.8966 22.4426C79.4362 22.4426 78.9759 22.4235 78.5251 22.3851C78.0743 22.3467 77.6571 22.2988 77.2735 22.2364C77.3742 23.2195 77.7051 23.9772 78.2661 24.5047C78.8272 25.037 79.6232 25.3007 80.6447 25.3007C81.0475 25.3007 81.4743 25.2672 81.925 25.2C82.3758 25.1329 82.8218 25.0322 83.2678 24.9075C83.7089 24.778 84.1309 24.639 84.5338 24.4807C84.9366 24.3225 85.2675 24.1546 85.5264 23.982L84.8646 27.0463C84.5625 27.2621 84.2029 27.4587 83.7809 27.6361C83.3589 27.8135 82.9129 27.9622 82.4382 28.0773C81.9682 28.1972 81.4887 28.2883 81.0091 28.3554C80.5248 28.4225 80.0548 28.4609 79.5945 28.4609C78.669 28.4609 77.825 28.3123 77.0625 28.0197C76.3 27.7272 75.6478 27.3052 75.106 26.7681C74.5641 26.2262 74.1469 25.5741 73.8543 24.8116C73.5618 24.0443 73.418 23.1907 73.418 22.246C73.418 21.028 73.6386 19.8771 74.0797 18.7837C74.5209 17.6952 75.1299 16.7265 75.902 15.8825C76.6741 15.0385 77.5852 14.372 78.6306 13.878C79.676 13.3889 80.7885 13.1395 81.973 13.1395C82.7355 13.1395 83.4356 13.245 84.0686 13.4464C84.7016 13.6526 85.2483 13.9452 85.7086 14.3144C86.169 14.6884 86.5287 15.1392 86.778 15.6715C87.0274 16.2038 87.1521 16.7888 87.1521 17.441L87.1569 17.4314ZM77.3646 20.2032C77.7482 20.2607 78.1031 20.3039 78.434 20.3231C78.7649 20.3423 79.0622 20.3518 79.3211 20.3518C80.5871 20.3518 81.5894 20.1121 82.3327 19.6325C83.076 19.153 83.4452 18.5296 83.4452 17.7623C83.4452 17.1917 83.2534 16.7409 82.8745 16.41C82.4909 16.0743 82.0018 15.9065 81.3976 15.9065C80.918 15.9065 80.4577 16.0216 80.0261 16.247C79.5945 16.4723 79.1964 16.784 78.8368 17.1725C78.4771 17.5657 78.1702 18.0213 77.9161 18.544C77.6667 19.0667 77.4797 19.6181 77.3598 20.208L77.3646 20.2032Z" fill="#494949"/>
<path id="Vector_4" d="M87.4877 24.0587C88.1111 24.5094 88.8448 24.8691 89.6888 25.1328C90.5328 25.3966 91.3672 25.5309 92.192 25.5309C92.8346 25.5309 93.3956 25.4254 93.88 25.2048C94.3643 24.989 94.6041 24.6149 94.6041 24.0874C94.6041 23.5983 94.4027 23.229 93.9999 22.9845C93.597 22.7399 93.0168 22.4714 92.2543 22.1741C91.7508 21.9966 91.2665 21.8 90.7917 21.5842C90.3218 21.3684 89.8998 21.0999 89.5257 20.7738C89.1517 20.4477 88.8592 20.0641 88.6386 19.6085C88.418 19.1577 88.3077 18.6063 88.3077 17.9589C88.3077 17.1532 88.4803 16.4531 88.8208 15.8537C89.1613 15.2543 89.636 14.7555 90.2355 14.3527C90.8397 13.9499 91.5494 13.643 92.3742 13.4368C93.199 13.2306 94.091 13.1299 95.0549 13.1299C95.8365 13.1299 96.6086 13.197 97.3615 13.3361C98.1143 13.4752 98.8145 13.6526 99.4571 13.8684L98.7042 17.1964C98.0616 16.784 97.3423 16.4915 96.551 16.314C95.7598 16.1366 95.0597 16.0503 94.4554 16.0503C92.9305 16.0503 92.1632 16.5442 92.1632 17.5225C92.1632 17.9924 92.3886 18.3569 92.8394 18.6111C93.2901 18.8652 93.8992 19.1242 94.6616 19.3783C95.1651 19.5558 95.6495 19.7524 96.1242 19.9682C96.5942 20.184 97.0114 20.4477 97.3758 20.7642C97.7355 21.0759 98.028 21.4595 98.2486 21.9103C98.4692 22.3611 98.5795 22.9125 98.5795 23.5599C98.5795 24.2888 98.426 24.9554 98.1143 25.5644C97.8026 26.1734 97.3615 26.6913 96.7908 27.1133C96.2201 27.5353 95.5152 27.8662 94.6808 28.1012C93.8464 28.3362 92.9161 28.4561 91.8947 28.4561C90.8732 28.4561 89.9046 28.3554 89.003 28.1635C88.1015 27.9669 87.3438 27.732 86.7444 27.4538L87.4973 24.0682L87.4877 24.0587Z" fill="#494949"/>
<path id="Vector_5" d="M107.178 9.6916L106.559 13.4224H110.506L109.993 16.7505H106.046L104.962 23.3777C104.862 23.9868 104.929 24.4183 105.159 24.6725C105.389 24.9267 105.725 25.0561 106.166 25.0561C106.607 25.0561 107.053 24.9698 107.566 24.7924C108.079 24.615 108.487 24.4375 108.784 24.2601L108.271 27.4395C107.931 27.6553 107.432 27.8759 106.78 28.1012C106.128 28.3266 105.379 28.4417 104.535 28.4417C103.85 28.4417 103.25 28.3554 102.728 28.178C102.205 28.0005 101.778 27.732 101.447 27.3675C101.116 27.0031 100.891 26.5331 100.771 25.9529C100.651 25.3726 100.661 24.6821 100.8 23.8765L101.946 16.7457H99.5674L107.173 9.68201L107.178 9.6916Z" fill="#494949"/>
<path id="Vector_6" d="M126.7 8.47363L126.019 11.9791L120.495 11.9215L117.651 28.4514H113.493L116.337 11.9215L110.702 11.9791L111.383 8.47363H126.695H126.7Z" fill="#494949"/>
<path id="Vector_7" d="M140.012 17.4122C140.012 17.4122 132.382 16.7648 129.97 19.8339C129.51 20.4237 129.107 21.1286 128.766 21.9535C128.426 22.7783 128.162 23.7134 127.985 24.754L127.424 28.4513H123.357L125.635 14.089H129.701L129.04 17.9493C129.644 16.6545 130.382 15.6379 131.255 14.8994C132.128 14.1609 133.269 13.7964 140.621 13.9451L140.016 17.4122H140.012Z" fill="#494949"/>
<path id="Vector_8" d="M134.066 28.4514L135.595 19.4504C135.797 18.2419 136.837 17.3596 138.06 17.3596H140.007L138.127 28.4514H134.061H134.066Z" fill="#494949"/>
<path id="Vector_9" d="M151.875 13.7917C152.556 13.7917 153.18 13.9307 153.746 14.2041C154.307 14.4774 154.796 14.8658 155.208 15.3694C155.621 15.8729 155.937 16.4819 156.158 17.1964C156.378 17.9109 156.489 18.7022 156.489 19.5654C156.489 20.7067 156.287 21.8432 155.884 22.9845C155.482 24.1258 154.921 25.152 154.196 26.0632C153.472 26.9743 152.6 27.7128 151.573 28.2738C150.547 28.8349 149.415 29.113 148.169 29.113C147.588 29.113 147.051 29.0555 146.557 28.9356C146.063 28.8157 145.608 28.6527 145.186 28.4321L143.987 35.443H139.92L143.435 14.0842H147.325L146.931 16.5011C147.574 15.6763 148.322 15.0193 149.176 14.5254C150.029 14.0362 150.926 13.7869 151.871 13.7869L151.875 13.7917ZM148.322 25.8713C148.926 25.8713 149.473 25.7131 149.962 25.4014C150.456 25.0897 150.883 24.6677 151.242 24.1498C151.602 23.6271 151.88 23.0276 152.072 22.3515C152.264 21.6753 152.36 20.9608 152.36 20.2127C152.36 19.1338 152.168 18.3329 151.789 17.8102C151.405 17.2923 150.907 17.0286 150.283 17.0286C149.842 17.0286 149.406 17.1628 148.974 17.4266C148.543 17.6903 148.14 18.0644 147.771 18.5439C147.396 19.0235 147.07 19.6085 146.792 20.2991C146.509 20.9848 146.289 21.7521 146.13 22.5961L145.737 24.9218C146.097 25.1952 146.505 25.4206 146.955 25.598C147.406 25.7754 147.862 25.8617 148.327 25.8617L148.322 25.8713Z" fill="#494949"/>
<path id="Vector_10" d="M138.717 12.5688C138.089 12.5688 137.595 12.4154 137.235 12.1037C136.876 11.792 136.694 11.37 136.694 10.8329C136.694 10.128 136.938 9.54771 137.427 9.09214C137.916 8.63658 138.564 8.41119 139.365 8.41119C139.993 8.41119 140.477 8.56465 140.818 8.87635C141.158 9.18805 141.331 9.61005 141.331 10.1519C141.331 10.8952 141.081 11.4851 140.583 11.9214C140.084 12.3578 139.461 12.5736 138.717 12.5736V12.5688Z" fill="#F50308"/>
<path id="Vector_11" d="M161.75 18.5055C159.745 18.5055 158.115 16.8751 158.115 14.8706C158.115 12.8661 159.745 11.2357 161.75 11.2357C163.754 11.2357 165.385 12.8661 165.385 14.8706C165.385 16.8751 163.754 18.5055 161.75 18.5055ZM161.75 11.6672C159.985 11.6672 158.546 13.1059 158.546 14.8706C158.546 16.6353 159.985 18.0739 161.75 18.0739C163.514 18.0739 164.953 16.6353 164.953 14.8706C164.953 13.1059 163.514 11.6672 161.75 11.6672Z" fill="#494949"/>
<path id="Vector_12" d="M160.167 16.9134V12.7126H161.965C162.325 12.7126 162.603 12.751 162.79 12.8277C162.977 12.9045 163.125 13.0387 163.241 13.2258C163.351 13.4176 163.408 13.6286 163.408 13.8588C163.408 14.1561 163.317 14.4102 163.13 14.6116C162.943 14.8178 162.655 14.9473 162.267 15.0001C162.411 15.072 162.516 15.1391 162.588 15.2111C162.747 15.3597 162.895 15.5467 163.034 15.7721L163.739 16.9134H163.063L162.526 16.0407C162.368 15.7865 162.238 15.5947 162.138 15.4604C162.037 15.3262 161.946 15.235 161.864 15.1775C161.783 15.1247 161.701 15.0864 161.62 15.0672C161.557 15.0528 161.461 15.048 161.322 15.048H160.699V16.9134H160.162H160.167ZM160.704 14.5685H161.855C162.099 14.5685 162.291 14.5445 162.43 14.4917C162.569 14.439 162.675 14.3575 162.747 14.2376C162.819 14.1225 162.857 13.9978 162.857 13.8588C162.857 13.6621 162.785 13.4991 162.646 13.3696C162.507 13.2401 162.286 13.1778 161.989 13.1778H160.709V14.5685H160.704Z" fill="#494949"/>
<path id="Vector_13" d="M58.7488 32.4746H56.6724L56.821 31.7169H61.8562L61.698 32.4746H59.6216L58.5522 37.8023H57.6938L58.7536 32.4746H58.7488Z" fill="#494949"/>
<path id="Vector_14" d="M64.671 33.3282C64.9683 33.2131 65.328 33.1556 65.75 33.1556L65.5918 33.966C65.539 33.9612 65.4671 33.9564 65.376 33.9564C64.4169 33.9564 63.8414 34.4743 63.6352 35.5053L63.1749 37.8119H62.3405L63.2516 33.2035H64.0524L63.9229 33.8893C64.1244 33.6351 64.3737 33.4481 64.671 33.333V33.3282Z" fill="#494949"/>
<path id="Vector_15" d="M72.0268 33.194L71.1156 37.8024H70.3148L70.4299 37.2366C70.2189 37.4332 69.9791 37.5866 69.7058 37.6921C69.4325 37.7976 69.1303 37.8504 68.8043 37.8504C68.411 37.8504 68.061 37.7688 67.7541 37.6106C67.4472 37.4523 67.2074 37.2222 67.03 36.9201C66.8573 36.6179 66.771 36.2631 66.771 35.8603C66.771 35.3376 66.8861 34.8724 67.1115 34.46C67.3369 34.0476 67.6486 33.7263 68.0466 33.4961C68.4446 33.2659 68.8906 33.1461 69.3797 33.1461C69.7729 33.1461 70.1134 33.2132 70.3915 33.3571C70.6745 33.4961 70.8903 33.7023 71.0389 33.9757L71.1972 33.194H72.0316H72.0268ZM69.9072 36.8769C70.1805 36.7139 70.3963 36.4837 70.5498 36.1864C70.7032 35.889 70.78 35.5534 70.78 35.1793C70.78 34.7669 70.6601 34.4504 70.4251 34.2202C70.1853 33.9948 69.8497 33.8798 69.4085 33.8798C69.068 33.8798 68.7611 33.9613 68.4878 34.1291C68.2144 34.2922 67.9986 34.5271 67.8452 34.8197C67.6869 35.117 67.6102 35.4527 67.6102 35.8267C67.6102 36.2343 67.7301 36.5508 67.9699 36.7762C68.2096 37.0064 68.5501 37.1215 68.9817 37.1215C69.3222 37.1215 69.6339 37.0399 69.9072 36.8721V36.8769Z" fill="#494949"/>
<path id="Vector_16" d="M78.5634 33.194L75.6334 37.8024H74.7798L73.6769 33.194H74.5113L75.3745 36.8913L77.7242 33.194H78.5682H78.5634Z" fill="#494949"/>
<path id="Vector_17" d="M80.1124 35.7595V35.8123C80.1124 36.2439 80.2323 36.57 80.4768 36.7905C80.7214 37.0159 81.0858 37.1262 81.5702 37.1262C81.8531 37.1262 82.1217 37.0783 82.371 36.9824C82.6204 36.8865 82.8266 36.757 82.9992 36.5939L83.3541 37.1934C83.1287 37.4044 82.8506 37.5626 82.5293 37.6825C82.2032 37.7976 81.8627 37.8551 81.503 37.8551C81.0523 37.8551 80.659 37.7736 80.3282 37.6106C79.9973 37.4475 79.7431 37.2173 79.5609 36.9152C79.3835 36.6131 79.2924 36.2583 79.2924 35.8554C79.2924 35.3375 79.4027 34.8772 79.628 34.4648C79.8534 34.0524 80.1603 33.7311 80.5584 33.5009C80.9564 33.2707 81.4023 33.1508 81.8915 33.1508C82.5197 33.1508 83.0184 33.3282 83.3924 33.6879C83.7665 34.0428 83.9535 34.5319 83.9535 35.1457C83.9535 35.3327 83.9343 35.5389 83.8912 35.7643H80.1076L80.1124 35.7595ZM80.7981 34.1962C80.5008 34.4264 80.3042 34.7477 80.1987 35.1553H83.1719C83.1958 34.7429 83.0855 34.4216 82.8458 34.1962C82.606 33.966 82.2751 33.851 81.8579 33.851C81.4407 33.851 81.0906 33.966 80.7981 34.1962Z" fill="#494949"/>
<path id="Vector_18" d="M86.7732 31.3526H87.6076L86.3224 37.8024H85.488L86.7732 31.3526Z" fill="#494949"/>
<path id="Vector_19" d="M92.6711 37.6634C92.2491 37.5243 91.9278 37.3469 91.7024 37.1311L92.086 36.4357C92.3162 36.6515 92.6087 36.8194 92.9636 36.9441C93.3184 37.0687 93.6829 37.1311 94.0569 37.1311C94.5557 37.1311 94.9542 37.04 95.2515 36.8577C95.5488 36.6755 95.697 36.4214 95.697 36.0953C95.697 35.9226 95.6394 35.7788 95.5243 35.6589C95.4093 35.539 95.2654 35.4479 95.0976 35.3807C94.9297 35.3136 94.6904 35.2321 94.3835 35.1362C93.9951 35.0211 93.6829 34.9108 93.4431 34.8053C93.2034 34.6998 93.0019 34.5463 92.8293 34.3401C92.6567 34.1339 92.5752 33.8654 92.5752 33.5249C92.5752 33.1413 92.6807 32.8104 92.8964 32.5275C93.1122 32.2445 93.4096 32.024 93.7932 31.8705C94.1768 31.717 94.6132 31.6403 95.1071 31.6403C95.486 31.6403 95.8413 31.6835 96.1818 31.7746C96.5223 31.8657 96.8148 31.9904 97.0642 32.1534L96.7184 32.8679C96.493 32.7049 96.2393 32.585 95.9564 32.5035C95.6735 32.422 95.3762 32.3836 95.0645 32.3836C94.5657 32.3836 94.1672 32.4795 93.8747 32.6761C93.5774 32.8727 93.4335 33.1317 93.4335 33.453C93.4335 33.6304 93.4916 33.7839 93.6115 33.9038C93.7313 34.0236 93.8795 34.1196 94.0569 34.1915C94.2344 34.2586 94.4741 34.3449 94.7811 34.4361C95.1647 34.5511 95.4716 34.6614 95.7066 34.7621C95.9415 34.8628 96.143 35.0115 96.306 35.2081C96.469 35.4047 96.5558 35.6589 96.5558 35.9754C96.5558 36.3638 96.4451 36.6995 96.2293 36.9824C96.0135 37.2654 95.7066 37.4859 95.3229 37.6394C94.9345 37.7928 94.489 37.8696 93.9855 37.8696C93.5347 37.8696 93.0979 37.8024 92.6759 37.6634H92.6711Z" fill="#494949"/>
<path id="Vector_20" d="M99.1688 33.1939H100.003L99.0921 37.8023H98.2577L99.1688 33.1939ZM99.4565 32.1581C99.3558 32.0622 99.3079 31.9423 99.3079 31.8033C99.3079 31.6402 99.3654 31.5012 99.4757 31.3909C99.5908 31.2758 99.7299 31.223 99.9073 31.223C100.056 31.223 100.185 31.271 100.286 31.3669C100.387 31.4628 100.44 31.5779 100.44 31.7122C100.44 31.8896 100.382 32.0382 100.272 32.1485C100.157 32.2588 100.013 32.3116 99.8306 32.3116C99.6819 32.3116 99.5573 32.2636 99.4565 32.1629V32.1581Z" fill="#494949"/>
<path id="Vector_21" d="M109.331 33.5488C109.623 33.8126 109.772 34.1866 109.772 34.6757C109.772 34.81 109.753 34.9922 109.709 35.2224L109.196 37.8023H108.362L108.875 35.2224C108.904 35.0594 108.918 34.9251 108.918 34.8244C108.918 34.5223 108.832 34.2921 108.664 34.1386C108.496 33.9804 108.242 33.9037 107.897 33.9037C107.47 33.9037 107.115 34.0236 106.842 34.2633C106.568 34.5031 106.381 34.8627 106.281 35.3471L105.787 37.8071H104.952L105.475 35.2272C105.504 35.069 105.518 34.9395 105.518 34.834C105.518 34.5319 105.432 34.3017 105.264 34.1434C105.091 33.9852 104.837 33.9037 104.497 33.9037C104.07 33.9037 103.715 34.0236 103.442 34.2681C103.168 34.5127 102.981 34.8819 102.881 35.3711L102.392 37.8071H101.557L102.468 33.1987H103.269L103.154 33.7742C103.562 33.3618 104.094 33.1556 104.756 33.1556C105.115 33.1556 105.422 33.2227 105.676 33.3666C105.931 33.5056 106.118 33.7071 106.233 33.9756C106.703 33.4289 107.326 33.1556 108.112 33.1556C108.635 33.1556 109.043 33.2899 109.335 33.5536L109.331 33.5488Z" fill="#494949"/>
<path id="Vector_22" d="M115.891 33.3906C116.198 33.5489 116.437 33.7791 116.61 34.0764C116.783 34.3737 116.869 34.7285 116.869 35.1314C116.869 35.6541 116.754 36.1192 116.528 36.5316C116.303 36.944 115.991 37.2653 115.593 37.5003C115.195 37.7353 114.749 37.8504 114.26 37.8504C113.867 37.8504 113.526 37.7784 113.244 37.6394C112.961 37.5003 112.74 37.2893 112.591 37.016L112.102 39.4856H111.268L112.519 33.1892H113.32L113.205 33.7647C113.632 33.3523 114.174 33.1461 114.831 33.1461C115.224 33.1461 115.574 33.2276 115.881 33.3858L115.891 33.3906ZM115.152 36.8769C115.425 36.7139 115.641 36.4837 115.795 36.1864C115.953 35.889 116.03 35.5534 116.03 35.1793C116.03 34.7669 115.91 34.4504 115.675 34.2202C115.435 33.9948 115.099 33.8798 114.658 33.8798C114.318 33.8798 114.006 33.9613 113.733 34.1291C113.459 34.2922 113.244 34.5271 113.09 34.8197C112.937 35.117 112.86 35.4527 112.86 35.8267C112.86 36.2343 112.98 36.5508 113.22 36.7762C113.459 37.0064 113.8 37.1215 114.231 37.1215C114.572 37.1215 114.879 37.0399 115.152 36.8721V36.8769Z" fill="#494949"/>
<path id="Vector_23" d="M119.699 31.3526H120.533L119.248 37.8024H118.413L119.699 31.3526Z" fill="#494949"/>
<path id="Vector_24" d="M126.699 33.194L123.429 38.3059C123.132 38.7711 122.853 39.0924 122.585 39.2698C122.316 39.4472 122.005 39.5384 121.635 39.5384C121.41 39.5384 121.189 39.5048 120.974 39.4281C120.758 39.3561 120.595 39.2554 120.48 39.126L120.916 38.5073C121.127 38.7135 121.386 38.819 121.698 38.819C121.894 38.819 122.067 38.7663 122.22 38.6608C122.369 38.5553 122.527 38.3779 122.69 38.1285L122.925 37.7641L121.813 33.1796H122.647L123.534 36.8673L125.855 33.1796H126.699V33.194Z" fill="#494949"/>
<path id="Vector_25" d="M7.46648 0H37.2988C41.4229 0 44.7653 3.34721 44.7653 7.46648V28.7869C44.7653 37.5482 37.6489 44.6646 28.8876 44.6646H7.46648C3.34241 44.6646 0 41.3174 0 37.1981V7.46648C0 3.34721 3.34721 0 7.46648 0Z" fill="#F50308"/>
<path id="Vector_26" d="M3.5343 17.4073C4.26321 20.9847 11.4515 31.4243 13.3601 33.9323C13.1347 32.7239 8.19064 19.8721 7.00137 13.5901C4.5893 13.4606 3.12669 14.8945 3.5343 17.4073Z" fill="white"/>
<path id="Vector_27" d="M12.8134 28.854L13.1059 8.04665C12.8662 7.30336 12.6456 6.45457 11.8735 5.97983C9.64843 4.61794 7.36581 6.5313 7.9029 9.52844C9.0586 15.9879 9.67241 19.4789 12.8086 28.8492L12.8134 28.854Z" fill="white"/>
<path id="Vector_28" d="M42.219 30.0193C41.164 29.9953 40.2337 30.7146 40.0131 31.7456C38.9533 36.7617 34.4216 40.4829 29.1035 40.363C23.0996 40.2239 18.3282 35.2367 18.4672 29.2472L18.918 9.81136C23.5792 10.5259 27.1086 14.6116 26.9983 19.4358L26.8113 27.5017L20.7547 24.8498L20.7019 27.0845L26.6962 32.5177L26.6291 35.4141C26.6003 36.6322 27.569 37.6392 28.787 37.668C30.005 37.6968 31.0169 36.7329 31.0456 35.5148L31.1128 32.6136L37.3516 27.4633L37.4044 25.2287L31.2327 27.5976L31.4197 19.5317C31.4245 19.2919 31.4245 19.0569 31.4197 18.822C35.8602 19.6708 39.3321 23.2098 40.0946 27.636C40.272 28.667 41.1688 29.4199 42.2142 29.4438C43.6097 29.4774 44.6838 28.221 44.4441 26.8495C43.2548 20.0736 37.5674 14.7842 30.5133 14.2615C28.552 9.13041 23.6271 5.42355 17.7959 5.28928L14.6165 5.21735L14.0602 29.1369C13.8636 37.5577 20.5724 44.5686 29.0124 44.7652C36.4741 44.9379 42.8328 39.7252 44.3386 32.6951C44.6311 31.338 43.624 30.0481 42.2334 30.0145L42.219 30.0193Z" fill="white"/>
</g>
</g>
</g>
</g>
</g>
</g>
</svg>
